<svg xmlns="http://www.w3.org/2000/svg" xmlns:xlink="http://www.w3.org/1999/xlink" width="542pt" height="74pt" viewBox="0.00 0.00 542.00 74.00">
<g id="graph0" class="graph" transform="scale(1 1) rotate(0) translate(4 70.4)">
<polygon fill="white" stroke="none" points="-4,4 -4,-70.4 537.82,-70.4 537.82,4 -4,4"/>
<text xml:space="preserve" text-anchor="middle" x="266.91" y="-49.8" font-family="Microsoft YaHei" font-size="14.00">写作子工作流 (WritingWorkflow)</text>
<!-- START -->
<g id="node1" class="node">
<title>START</title>
<ellipse fill="#e8f5e9" stroke="black" cx="41.62" cy="-20.8" rx="41.62" ry="18"/>
<text xml:space="preserve" text-anchor="middle" x="41.62" y="-16.6" font-family="Times,serif" font-size="14.00">START</text>
</g>
<!-- writing_director_node -->
<g id="node2" class="node">
<title>writing_director_node</title>
<path fill="#c5cae9" stroke="black" d="M248.43,-41.6C248.43,-41.6 131.24,-41.6 131.24,-41.6 125.24,-41.6 119.24,-35.6 119.24,-29.6 119.24,-29.6 119.24,-12 119.24,-12 119.24,-6 125.24,0 131.24,0 131.24,0 248.43,0 248.43,0 254.43,0 260.43,-6 260.43,-12 260.43,-12 260.43,-29.6 260.43,-29.6 260.43,-35.6 254.43,-41.6 248.43,-41.6"/>
<text xml:space="preserve" text-anchor="middle" x="189.83" y="-25" font-family="Times,serif" font-size="14.00">writing_director_node</text>
<text xml:space="preserve" text-anchor="middle" x="189.83" y="-8.2" font-family="Times,serif" font-size="14.00">(大纲/任务拆分)</text>
</g>
<!-- START&#45;&gt;writing_director_node -->
<g id="edge1" class="edge">
<title>START-&gt;writing_director_node</title>
<path fill="none" stroke="black" d="M83.74,-20.8C91.29,-20.8 99.4,-20.8 107.66,-20.8"/>
<polygon fill="black" stroke="black" points="107.45,-24.3 117.45,-20.8 107.45,-17.3 107.45,-24.3"/>
</g>
<!-- parallel_writing_node -->
<g id="node3" class="node">
<title>parallel_writing_node</title>
<path fill="#c5cae9" stroke="black" d="M424.05,-41.6C424.05,-41.6 308.43,-41.6 308.43,-41.6 302.43,-41.6 296.43,-35.6 296.43,-29.6 296.43,-29.6 296.43,-12 296.43,-12 296.43,-6 302.43,0 308.43,0 308.43,0 424.05,0 424.05,0 430.05,0 436.05,-6 436.05,-12 436.05,-12 436.05,-29.6 436.05,-29.6 436.05,-35.6 430.05,-41.6 424.05,-41.6"/>
<text xml:space="preserve" text-anchor="middle" x="366.24" y="-25" font-family="Times,serif" font-size="14.00">parallel_writing_node</text>
<text xml:space="preserve" text-anchor="middle" x="366.24" y="-8.2" font-family="Times,serif" font-size="14.00">(并行写作)</text>
</g>
<!-- writing_director_node&#45;&gt;parallel_writing_node -->
<g id="edge2" class="edge">
<title>writing_director_node-&gt;parallel_writing_node</title>
<path fill="none" stroke="black" d="M260.77,-20.8C268.69,-20.8 276.81,-20.8 284.85,-20.8"/>
<polygon fill="black" stroke="black" points="284.63,-24.3 294.63,-20.8 284.63,-17.3 284.63,-24.3"/>
</g>
<!-- END -->
<g id="node4" class="node">
<title>END</title>
<ellipse fill="#fff3e0" stroke="black" cx="502.94" cy="-20.8" rx="30.88" ry="18"/>
<text xml:space="preserve" text-anchor="middle" x="502.94" y="-16.6" font-family="Times,serif" font-size="14.00">END</text>
</g>
<!-- parallel_writing_node&#45;&gt;END -->
<g id="edge3" class="edge">
<title>parallel_writing_node-&gt;END</title>
<path fill="none" stroke="black" d="M436.17,-20.8C444.51,-20.8 452.81,-20.8 460.57,-20.8"/>
<polygon fill="black" stroke="black" points="460.36,-24.3 470.36,-20.8 460.36,-17.3 460.36,-24.3"/>
</g>
</g>
</svg>